<?xml version="1.0" encoding="UTF-8"?>
<svg id="Layer_1" xmlns="http://www.w3.org/2000/svg" version="1.1" viewBox="0 0 595.28 841.89">
  <!-- Generator: Adobe Illustrator 29.8.1, SVG Export Plug-In . SVG Version: 2.1.1 Build 2)  -->
  <defs>
    <style>
      .st0, .st1 {
        fill: #fff;
      }

      .st2 {
        fill: #00a651;
      }

      .st2, .st1 {
        stroke: #231f20;
        stroke-miterlimit: 10;
        stroke-width: 5px;
      }
    </style>
  </defs>
  <path class="st1" d="M285.99,129.29c7.65,10.3,8.26,11.08,9,13,2.69,6.97-.69,8.74,2,17,1,3.08,2.67,5.72,6,11,4.51,7.15,10,14,10,14,0,0,3.85,5.01,8,7,3.9,1.87,5.37-.23,14,0,6.46.17,10.36.27,13,3,3.49,3.61,4,10.99,4,11,0,0-.84,6.77-4,12-3.22,5.32-8.53,8.53-8.54,8.52,0,0,.18-.18.53-.52.95-.91,2.32-2.09,4.25-3.32-3.02,2.54-6.56,6.05-9.83,10.74-1.59,2.28-2.88,4.48-3.92,6.52,1.23-2.48,1.56-3.07,1.59-3.06.08.04-2.8,4.18-3.08,9.12-.22,3.76,1.15,6.57,3.2,10.65,1.61,3.2,4.29,7.71,8.72,12.45.21.35,2.06,3.39,5.5,3.67,1.54.12,2.78-.36,3.44-.69,1.7-.16,3.73-.49,5.96-1.15,3.06-.9,5.52-2.12,7.34-3.21.75-1.35,1.93-2.89,3.84-3.73.25-.11.44-.17.49-.19,0,0,7.4-2.97,14.51-9.81,9.96-9.57,19.03-24.38,20.17-29.48.13-.56.56-2.83,2.38-4.66.89-.89,1.82-1.4,2.41-1.67.45.14,1.1.4,1.77.89,4.47,3.28,2.96,12.21,2.33,15.95,0,0-2.73,14.94-15.79,29.68,0,0-.27.29-.27.29,0,0-2.73,6.29-6,12-2.15,3.76-3.54,6.18-6,9-3.91,4.48-5.13,3.77-9,8-4.94,5.4-3.86,7.53-8,11-3.71,3.11-5.15,1.88-11,5-4.16,2.22-10.71,5.72-13,12-1.66,4.57.87,5.29,0,16-.42,5.19-1.08,5.85-1,10,.07,3.3.53,5.27,2,12,2.71,12.43,2.02,9.89,3,14,2.2,9.28,3.31,13.93,5,18,2.27,5.46,2.85,4.76,6,12,1.98,4.55,2.12,5.65,5,13,2.58,6.57,3.87,9.86,5,12,4.64,8.8,7.87,9.49,10,16,.93,2.83.95,5.89,1,12,.11,13.12-2,25-2,25,0,0-3.8,12.12-11,23-4.98,7.52-7.48,8.26-8,13-.45,4.09,1.26,4.89,1,12-.16,4.28-1,10-1,10,0,0,5.64,2.17,10,3,4.27.82,6.05.12,11,0,5.25-.12,9.58.3,16.03,1.6,2.22.45,4.23.98,4.91,1.16,0,0,2.26.6,4.04,1.23,0,0,0,0,.01,0,1.26,2.69,3.16,5.99,6.06,9.28,1.3,1.48,2.61,2.74,3.85,3.8,1.15.53,2.3,1.06,3.45,1.6,1.31.39,2.97,1.08,4.63,2.32,4.53,3.39,5.7,8.4,6,10-12.06,4.85-19.29,3.56-23.7,1.36-5.63-2.8-6.72-7.09-14.3-9.36-3.67-1.1-4.19-.33-13-2,0,0-4.75-.5-11-3,0,0,0,0,0,0,0,0-14-5-14-5,0,0-6.12-6.87-10-14-2.91-5.36-8.31-15.27-6.25-25.85.46-2.37,1.21-4.34.25-5.15-2.76-2.33-16,8-16,8l-9,14s-3.19,9.13-10,14c-4.91,3.51-12,5-12,5-.02,0,.57-.36.56-.47-.05-.33-5.32.83-10.56.47-1.31-.09-5.88-.05-11.65-1.15-.9-.17-1.64-.33-2.16-.45-1.21-1.1-2.19-2.03-2.88-2.7-3.69-3.58-5.83-6.13-6.32-6.71-1.54-1.82-2.39-3.03-7-10-5.71-8.63-6.11-10.26-9-12-3.01-1.81-3.7-.73-10-3-7.29-2.63-8.27-4.76-10-4-1.27.56-2.52,2.49-1,27,.34,5.39,1,15,1,15-19.91-1.07-24.37.08-24.37.08-6.36,1.64-5.14,3.19-18.63,8.92-5.49,2.33-9.39,3.96-14.75,5.13-5.71,1.24-16.99,3.7-19.25-.13-2.67-4.54,7.35-17.75,19-22,5.41-1.97,11-2,11-2,6.25-.03,7.5,1.85,11.12,1.56,8.5-.69,17.33-12.32,16.88-22.56-.05-1.19-.21-1.85-6-15-3.44-7.8-4.87-10.94-7-16-5.08-12.04-5.68-14.82-6-17-.2-1.37-.63-4.68,0-13,.87-11.55,2.82-20.21,3-21,6.91-30.18,16.52-72.11,29-93,.97-1.62,4.72-7.75,5-16,.09-2.56.2-7.96-3-13-1.36-2.14-3.92-4.12-9-8-5.52-4.21-6.43-4.35-11-8-3.2-2.55-5.42-4.61-8-7-2.87-2.66-6.15-5.7-10-10-3.92-4.38-6.48-7.91-8-10-16.18-22.19-20.6-24.83-25-36-1.7-4.31-6.2-15.74-3-18,4-2.83,16.21,11.43,39,26,7.27,4.65,9.74,5.64,15,10,7.16,5.93,8.23,8.21,11,8,5.6-.42,9.27-10.33,11-15,2.83-7.65,4-17,4-17,0,0-2.42-7.47-6-14-4.22-7.7-6.59-7.77-7-12-.55-5.73,3.35-10.25,4-11,4.02-4.65,9.53-5.58,12-6,5.79-.98,6.88,1.01,12,0,6.58-1.3,10.83-5.77,12-7,2.59-2.72,4.39-7.48,8-17,2.37-6.25,5-14,5-14,0,0,3.17-7.26,7-14,3.96-6.97,10.67-11.02,18-9Z"/>
  <path class="st0" d="M245.39,363.17"/>
  <path class="st0" d="M202.39,369.17"/>
  <path class="st2" d="M859,420"/>
  <path class="st1" d="M464.04,153.51"/>
</svg>